HIERARCHY
ROOT hip
{
	OFFSET 0.000000 0.000000 0.000000 
	CHANNELS 6 Xposition Yposition Zposition Xrotation Zrotation Yrotation
	JOINT abdomen
	{
		OFFSET 0.000000 3.402643 0.000000 
		CHANNELS 3 Xrotation Zrotation Yrotation
		JOINT chest
		{
			OFFSET 0.000000 8.438565 -0.680529 
			CHANNELS 3 Xrotation Zrotation Yrotation
			JOINT neck
			{
				OFFSET 0.000000 10.207942 -0.272212 
				CHANNELS 3 Xrotation Zrotation Yrotation
				JOINT head
				{
					OFFSET 0.000000 3.130431 0.000000 
					CHANNELS 3 Xrotation Zrotation Yrotation
					End Site
					{
						OFFSET 0.000000 3.130435 0.000000 
					}
				}
			}
			JOINT lCollar
			{
				OFFSET 3.470700 6.669187 -0.816635 
				CHANNELS 3 Yrotation Zrotation Xrotation
				JOINT lShldr
				{
					OFFSET 3.198488 0.000000 0.000000 
					CHANNELS 3 Zrotation Yrotation Xrotation
					JOINT lForeArm
					{
						OFFSET 10.139888 0.000000 0.000000 
						CHANNELS 3 Yrotation Zrotation Xrotation
						JOINT lHand
						{
							OFFSET 8.370511 0.000000 0.000000 
							CHANNELS 3 Zrotation Yrotation Xrotation
							End Site
							{
								OFFSET 4.083176 0.000000 0.000000 
							}
						}
					}
				}
			}
			JOINT rCollar
			{
				OFFSET -3.470700 6.669187 -0.816635 
				CHANNELS 3 Yrotation Zrotation Xrotation
				JOINT rShldr
				{
					OFFSET -3.198488 0.000000 0.000000 
					CHANNELS 3 Zrotation Yrotation Xrotation
					JOINT rForeArm
					{
						OFFSET -10.139888 0.000000 0.000000 
						CHANNELS 3 Yrotation Zrotation Xrotation
						JOINT rHand
						{
							OFFSET -8.370511 0.000000 0.000000 
							CHANNELS 3 Zrotation Yrotation Xrotation
							End Site
							{
								OFFSET -4.083176 0.000000 0.000000 
							}
						}
					}
				}
			}
		}
	}
	JOINT lThigh
	{
		OFFSET 5.308129 -1.633274 1.361059 
		CHANNELS 3 Xrotation Zrotation Yrotation
		JOINT lShin
		{
			OFFSET -2.041588 -20.007561 0.000000 
			CHANNELS 3 Xrotation Zrotation Yrotation
			JOINT lFoot
			{
				OFFSET 0.000000 -19.190928 -1.224953 
				CHANNELS 3 Xrotation Yrotation Zrotation
				End Site
				{
					OFFSET 0.000000 -2.449906 4.627600 
				}
			}
		}
	}
	JOINT rThigh
	{
		OFFSET -5.308129 -1.633274 1.361059 
		CHANNELS 3 Xrotation Zrotation Yrotation
		JOINT rShin
		{
			OFFSET 2.041588 -20.007561 0.000000 
			CHANNELS 3 Xrotation Zrotation Yrotation
			JOINT rFoot
			{
				OFFSET 0.000000 -19.190928 -1.224953 
				CHANNELS 3 Xrotation Yrotation Zrotation
				End Site
				{
					OFFSET 0.000000 -2.449906 4.627600 
				}
			}
		}
	}
}
MOTION
Frames: 8
Frame Time: 0.011111
-79.082535 50.520336 -3.529727 0.211980 -4.823335 89.520142 12.190043 -2.357267 -5.333347 -15.822347 3.762707 -0.839993 -5.855714 4.307853 2.659248 23.515980 -7.859405 3.933019 2.785591 -10.422155 1.651026 -70.340454 -38.693245 15.815895 -35.410297 2.957807 2.852189 8.524705 12.647240 -63.128304 2.149531 12.114442 0.054873 64.477005 27.858471 5.980789 37.850620 -3.949955 3.663286 -8.534408 -12.637552 25.130716 -6.255304 9.544799 -2.808863 26.805468 -5.508591 -4.444305 -30.185915 6.366642 1.697726 -2.634619 -12.101777 2.554970 20.105247 5.757508 3.510195 -23.903973 -11.131665 -1.923034 
-79.075401 50.528831 -3.511374 0.193578 -4.891619 89.430061 11.939191 -2.421174 -5.218580 -16.145155 3.764658 -0.811790 -4.793422 4.286427 2.678314 22.792463 -7.778895 3.882577 2.785591 -10.422155 1.651026 -70.268829 -38.118484 15.959073 -35.440407 2.971447 2.856123 8.524705 12.647240 -63.030651 2.149531 12.114442 0.054873 64.572601 27.286247 5.704927 37.940750 -3.981161 3.692814 -8.534408 -12.637552 25.062359 -6.356900 9.628381 -2.572696 26.858805 -5.488369 -4.454841 -30.214445 6.203403 1.615366 -2.674062 -12.065495 2.715587 20.013750 5.756460 3.511850 -23.845345 -11.203375 -1.928448 
-79.082886 50.527134 -3.532106 0.122066 -4.853025 89.536568 12.219113 -2.238352 -5.303567 -16.077425 3.670619 -0.852428 -5.731004 4.517905 2.665328 23.560074 -8.081523 3.890240 2.785591 -10.422155 1.651026 -70.272903 -38.489647 15.691453 -35.390484 2.950965 2.844458 8.524705 12.647240 -63.265022 2.149531 12.114442 0.054873 64.593483 27.707952 5.524669 37.870548 -3.956174 3.671189 -8.534408 -12.637552 24.906109 -6.394247 9.684601 -2.563259 26.938860 -5.488569 -4.452178 -30.240492 6.162325 1.611093 -2.566404 -12.033772 2.525727 19.909479 5.767008 3.494090 -23.781361 -11.154029 -1.889953 
-79.082207 50.534271 -3.544002 0.034168 -4.853384 89.558563 12.156173 -2.096184 -5.394346 -16.204447 3.700331 -0.897766 -5.134718 4.437156 2.755874 22.913137 -7.919333 4.067995 2.785591 -10.422155 1.651026 -70.323761 -38.253986 15.565707 -35.430103 2.964643 2.859421 8.524705 12.647240 -63.255264 2.149531 12.114442 0.054873 64.548943 27.500233 5.784001 37.900890 -3.968753 3.676975 -8.534408 -12.637552 25.081890 -6.431038 9.740060 -2.652346 26.996231 -5.498362 -4.478995 -30.321497 6.323200 1.709979 -2.508210 -11.937785 2.280725 19.848846 5.766666 3.479046 -23.579424 -11.265289 -1.880376 
-79.078461 50.547531 -3.548081 0.018291 -4.951099 89.539688 12.040239 -2.081905 -5.250195 -15.783971 3.665851 -0.844068 -5.486891 4.364872 2.733676 22.598375 -7.831021 4.069253 2.785591 -10.422155 1.651026 -70.332741 -38.752041 15.538598 -35.330524 2.923041 2.826914 8.524705 12.647240 -63.431046 2.149531 12.114442 0.054873 64.516296 27.997442 5.448121 37.840454 -3.942988 3.656348 -8.534408 -12.637552 25.003763 -6.537081 9.728914 -2.762123 27.050137 -5.474729 -4.487890 -30.341818 6.325154 1.702222 -2.567350 -11.910215 2.204594 19.807985 5.766144 3.485175 -23.366671 -11.486288 -1.883215 
-79.078133 50.551605 -3.545702 0.039240 -4.970533 89.499260 12.030475 -2.109473 -5.234336 -15.861937 3.703021 -0.836716 -5.351010 4.312839 2.776860 22.348515 -7.716643 4.157833 2.785591 -10.422155 1.651026 -70.339706 -38.673721 15.395975 -35.290916 2.909316 2.812511 8.524705 12.647240 -63.528694 2.149531 12.114442 0.054873 64.510498 27.938452 5.213893 37.830696 -3.943731 3.655388 -8.534408 -12.637552 25.072124 -6.547522 9.710287 -2.762205 27.050446 -5.474770 -4.478192 -30.338371 6.171470 1.624563 -2.614949 -11.924763 2.264992 19.797842 5.766027 3.484279 -23.338566 -11.554408 -1.900563 
-79.078804 50.542435 -3.550461 0.032521 -4.863140 89.499695 12.148036 -2.085542 -5.196250 -15.920636 3.701523 -0.830755 -5.244596 4.107977 2.848669 22.317366 -7.416950 4.344623 2.785591 -10.422155 1.651026 -70.339333 -38.663960 15.513165 -35.261063 2.895024 2.798908 8.524705 12.647240 -63.431046 2.149531 12.114442 0.054873 64.502769 27.908707 4.945180 37.860798 -3.956920 3.670227 -8.534408 -12.637552 25.150249 -6.421638 9.682394 -2.927966 27.040129 -5.474924 -4.487062 -30.365938 6.294954 1.704808 -2.517678 -11.916773 2.291786 19.818127 5.766261 3.486072 -23.358210 -11.558654 -1.905648 
-79.076088 50.536652 -3.562016 0.061546 -4.882615 89.628189 12.020746 -2.093886 -5.297870 -16.341476 3.686723 -0.877910 -4.343383 4.154281 2.906587 21.954287 -7.446572 4.374817 2.785591 -10.422155 1.651026 -70.305344 -38.029709 15.705967 -35.340824 2.929862 2.823593 8.524705 12.647240 -63.167374 2.149531 12.114442 0.054873 64.552010 27.304754 4.884923 37.981274 -4.000653 3.704923 -8.534408 -12.637552 25.316265 -6.449872 9.622391 -3.086144 27.018555 -5.488970 -4.459273 -30.304682 6.367205 1.718289 -2.537045 -11.964979 2.458377 19.858694 5.766713 3.489655 -23.553392 -11.619635 -1.991348 
